<?xml version="1.0"?>
<svg xmlns="http://www.w3.org/2000/svg" xmlns:xlink="http://www.w3.org/1999/xlink" xmlns:svgjs="http://svgjs.com/svgjs" version="1.1" width="256" height="256" x="0" y="0" viewBox="0 0 24 24" style="enable-background:new 0 0 512 512" xml:space="preserve"><g><path d="M21,2h-3V0h-2V2H8V0h-2V2H3C1.346,2,0,3.346,0,5V24H24V5c0-1.654-1.346-3-3-3Zm1,20H2V10H22v12Zm0-14H2v-3c0-.551,.448-1,1-1H21c.552,0,1,.449,1,1v3Zm-12.914,11.414l-2.782-2.696,1.393-1.437,2.793,2.707,5.809-5.701,1.404,1.425-5.793,5.707c-.387,.387-.896,.58-1.407,.58s-1.025-.195-1.416-.585Z" fill="#f00c5e" data-original="#000000"/></g></svg>
